HIERARCHY
ROOT root
{
	OFFSET	0	13.1	24.9
	CHANNELS 6  Xposition Yposition Zposition Xrotation Yrotation Zrotation
	JOINT spine_1
	{
		OFFSET	0	9.99999	0
		CHANNELS 3  Xrotation Yrotation Zrotation
		JOINT spine_2
		{
			OFFSET	0	112	-10
			CHANNELS 3  Xrotation Yrotation Zrotation
			JOINT spine_3
			{
				OFFSET	0	206.5	19.3
				CHANNELS 3  Xrotation Yrotation Zrotation
				JOINT spine_4
				{
					OFFSET	0	110.4	14.6
					CHANNELS 3  Xrotation Yrotation Zrotation
					JOINT neck_1
					{
						OFFSET	0	71.8	-50.3
						CHANNELS 3  Xrotation Yrotation Zrotation
						JOINT neck_2
						{
							OFFSET	0	86.2	-25.8
							CHANNELS 3  Xrotation Yrotation Zrotation
							JOINT head_ee
							{
								OFFSET	0	179.8	-8.7
								CHANNELS 3  Xrotation Yrotation Zrotation
								End Site
								{
									OFFSET	1	0	0
								}
							}
						}
					}
					JOINT left_clavicle
					{
						OFFSET	-43.2	22.4	-70.8
						CHANNELS 3  Xrotation Yrotation Zrotation
						JOINT left_shoulder
						{
							OFFSET	-93.9	-5.79999	48.7
							CHANNELS 3  Xrotation Yrotation Zrotation
							JOINT left_elbow
							{
								OFFSET	-291.4	-30.8	15.2
								CHANNELS 3  Xrotation Yrotation Zrotation
								JOINT left_lowarm_twist
								{
									OFFSET	-110.7	-3.89999	13.6
									CHANNELS 3  Xrotation Yrotation Zrotation
									JOINT left_hand
									{
										OFFSET	-110.7	-3.89999	13.6
										CHANNELS 3  Xrotation Yrotation Zrotation
										JOINT left_ee
										{
											OFFSET	-80.8	-5.10001	12.1
											CHANNELS 3  Xrotation Yrotation Zrotation
											End Site
											{
												OFFSET	1	0	0
											}
										}
									}
								}
							}
						}
					}
					JOINT right_clavicle
					{
						OFFSET	43.2	22.4	-70.8
						CHANNELS 3  Xrotation Yrotation Zrotation
						JOINT right_shoulder
						{
							OFFSET	93.9	-5.79999	48.7
							CHANNELS 3  Xrotation Yrotation Zrotation
							JOINT right_elbow
							{
								OFFSET	291.4	-30.8	15.2
								CHANNELS 3  Xrotation Yrotation Zrotation
								JOINT right_lowarm_twist
								{
									OFFSET	110.7	-3.89999	13.6
									CHANNELS 3  Xrotation Yrotation Zrotation
									JOINT right_hand
									{
										OFFSET	110.7	-3.89999	13.6
										CHANNELS 3  Xrotation Yrotation Zrotation
										JOINT right_ee
										{
											OFFSET	80.8	-5.10001	12.1
											CHANNELS 3  Xrotation Yrotation Zrotation
											End Site
											{
												OFFSET	1	0	0
											}
										}
									}
								}
							}
						}
					}
				}
			}
		}
	}
	JOINT left_hip
	{
		OFFSET	-82.8	-127.5	0.300001
		CHANNELS 3  Xrotation Yrotation Zrotation
		JOINT left_knee
		{
			OFFSET	-28.2	-396.7	2.2
			CHANNELS 3  Xrotation Yrotation Zrotation
			JOINT left_ankle
			{
				OFFSET	-11.7	-411.3	35.4
				CHANNELS 3  Xrotation Yrotation Zrotation
				JOINT left_toes
				{
					OFFSET	0	-60	-88.6
					CHANNELS 3  Xrotation Yrotation Zrotation
					JOINT left_foot_ee
					{
						OFFSET	-22.5	-16.5	-42.2
						CHANNELS 3  Xrotation Yrotation Zrotation
						End Site
						{
							OFFSET	1	0	0
						}
					}
				}
			}
		}
	}
	JOINT right_hip
	{
		OFFSET	82.8	-127.5	0.300001
		CHANNELS 3  Xrotation Yrotation Zrotation
		JOINT right_knee
		{
			OFFSET	28.2	-396.7	2.2
			CHANNELS 3  Xrotation Yrotation Zrotation
			JOINT right_ankle
			{
				OFFSET	11.7	-411.3	35.4
				CHANNELS 3  Xrotation Yrotation Zrotation
				JOINT right_toes
				{
					OFFSET	0	-60	-88.6
					CHANNELS 3  Xrotation Yrotation Zrotation
					JOINT right_foot_ee
					{
						OFFSET	22.5	-16.5	-42.2
						CHANNELS 3  Xrotation Yrotation Zrotation
						End Site
						{
							OFFSET	1	0	0
						}
					}
				}
			}
		}
	}
}
MOTION
Frames: 6
Frame Time: 0.02
2932.09 639.946 -593.949 143.311 -81.1119 154.584 -3.07454 -0.613549 -5.26768 -3.05915 -0.27759 -5.29594 -3.01369 1.11847 -5.18424 -3.05106 0.286884 -5.29545 -16.2338 19.0769 10.5556 -16.9156 30.6655 16.8558 -0.0 0.0 -0.0 10.9129 11.7614 20.3382 7.79574 -9.15134 69.6944 1.82891 -42.1721 0.705255 13.3514 0.275852 -1.67936 2.15702 9.7275 18.2077 -0.0 0.0 -0.0 0.125635 -8.23842 -1.19891 5.26998 28.7045 -69.2592 0.95048 25.2125 -0.212571 8.87005 -0.227046 1.10919 3.37006 -4.20161 -24.7877 0.0 0.0 0.0 11.0096 -18.4813 -6.16854 -44.3279 -0.764811 6.59325 40.4415 25.1746 -5.21592 9.93284 -0.0 -0.0 -0.0 0.0 -0.0 3.91825 4.706 -7.17118 -57.9742 1.98525 -8.29848 36.9822 -16.392 4.67292 33.821 -0.0 -0.0 0.0 0.0 0.0 
2946.51 647.369 -593.487 145.423 -80.5789 156.351 -2.96737 -0.575299 -5.11641 -2.95285 -0.249002 -5.14256 -2.91231 1.09691 -5.03067 -2.94749 0.289748 -5.14043 -16.5754 19.4697 10.4218 -17.3788 31.583 17.0244 -0.0 0.0 -0.0 10.719 11.5619 20.0055 8.57343 -7.87102 69.9385 1.92785 -43.6768 0.772646 14.0003 0.279218 -1.76219 2.11993 8.32895 17.4634 -0.0 0.0 -0.0 -0.413465 -7.86309 -0.200472 4.53856 27.6791 -70.652 0.694681 18.9896 -0.116187 8.66357 -0.223724 1.08302 3.25866 -5.06307 -24.2934 0.0 0.0 0.0 7.57113 -16.6144 -5.79008 -38.4666 -0.372108 5.78243 42.5568 26.0909 -5.44567 9.46466 -0.0 -0.0 -0.0 0.0 -0.0 7.30441 3.56851 -8.03301 -55.4971 1.73387 -8.011 35.3985 -17.2563 4.53091 33.8839 -0.0 -0.0 0.0 0.0 0.0 
2961.92 664.005 -595.044 146.012 -80.9665 156.283 -2.90767 -0.818558 -4.85793 -2.89469 -0.508157 -4.90003 -2.83387 0.775773 -4.86493 -2.86688 -0.00131793 -4.92625 -16.7665 19.0369 9.86977 -17.5913 31.0972 16.4149 -0.0 0.0 -0.0 10.8116 12.2926 20.0743 8.96829 -6.85036 70.1683 2.06982 -45.711 0.872509 13.681 0.277679 -1.72143 1.97312 8.02585 16.357 -0.0 0.0 -0.0 -0.659089 -7.22939 0.31902 4.38607 24.1217 -71.3427 0.351645 9.88166 -0.0303991 9.02603 -0.229494 1.12896 2.88341 -6.5747 -22.1453 0.0 0.0 0.0 4.122 -13.5356 -5.86609 -30.5891 0.0210502 4.63892 40.883 24.2158 -5.22642 6.57563 -0.0 -0.0 -0.0 0.0 -0.0 8.88997 3.35481 -7.22028 -53.1137 1.50402 -7.7245 32.3845 -19.0835 4.24928 31.2129 -0.0 -0.0 0.0 0.0 0.0 
2972.11 664.632 -596.135 146.115 -80.7739 155.862 -2.80964 -0.834875 -4.85432 -2.79668 -0.52467 -4.89746 -2.73478 0.75066 -4.86802 -2.76783 -0.0266048 -4.92535 -16.6566 18.7628 9.80067 -17.4317 30.5807 16.1964 -0.0 0.0 -0.0 10.5157 11.636 19.6186 9.80271 -6.4026 71.5006 2.36936 -49.5618 1.09396 17.3909 0.281542 -2.19518 1.57304 9.17651 14.085 -0.0 0.0 -0.0 -1.2254 -7.05646 1.35731 3.19062 23.7305 -71.6649 0.184511 5.22253 -0.00841493 7.02449 -0.194009 0.87576 2.55285 -10.0302 -21.0257 0.0 0.0 0.0 3.06541 -14.2864 -4.8909 -29.2528 0.0719604 4.44016 41.7363 25.5416 -5.35026 5.83344 -0.0 -0.0 -0.0 0.0 -0.0 11.5136 5.18779 -7.34315 -51.7873 1.38136 -7.56106 32.0671 -20.8447 4.24756 34.2987 -0.0 -0.0 0.0 0.0 0.0 
2987.66 668.661 -595.921 145.83 -80.7021 155.007 -2.86402 -0.83719 -4.75426 -2.85161 -0.533325 -4.79776 -2.79032 0.721217 -4.77319 -2.8221 -0.0407577 -4.82707 -18.5342 18.345 11.1523 -19.3295 29.4733 17.8174 -0.0 0.0 -0.0 10.195 9.89122 19.2358 10.8602 -6.86522 72.0748 2.51559 -51.2457 1.20665 20.1529 0.264502 -2.54752 1.1229 11.0476 11.8009 -0.0 0.0 -0.0 -1.23538 -6.13557 1.50859 0.319912 20.8749 -71.4398 0.182069 5.1538 -0.00819418 6.46977 -0.18261 0.805815 1.79437 -13.7633 -17.151 0.0 0.0 0.0 -0.147995 -15.2228 -3.63567 -24.5372 0.214257 3.73066 42.1742 26.2603 -5.41674 5.38642 -0.0 -0.0 -0.0 0.0 -0.0 14.7592 3.69532 -7.79744 -48.681 1.10924 -7.16768 30.4838 -26.1659 4.1929 33.6097 -0.0 -0.0 0.0 0.0 0.0 
2999.66 675.456 -597.158 147.69 -80.1544 156.774 -2.83951 -0.72702 -4.74703 -2.82708 -0.423835 -4.78356 -2.77562 0.822483 -4.73146 -2.80685 0.0658132 -4.8018 -17.8744 18.316 10.9114 -18.6098 29.3913 17.3748 -0.0 0.0 -0.0 10.0525 8.63262 19.1031 11.1348 -7.26811 72.9856 2.70598 -53.2672 1.35722 22.3299 0.239116 -2.82442 0.956746 10.9009 10.6652 -0.0 0.0 -0.0 -1.25066 -5.46866 1.6329 -1.56977 17.8733 -70.8319 0.16357 4.63256 -0.00661623 6.62405 -0.185848 0.825258 1.07568 -17.9537 -13.9333 0.0 0.0 0.0 -2.82329 -13.7221 -3.25306 -20.0583 0.294942 3.04828 41.5781 26.5081 -5.37033 4.08834 -0.0 -0.0 -0.0 0.0 -0.0 17.1618 2.9286 -8.49683 -42.5465 0.636669 -6.35103 26.9448 -27.2116 3.79792 32.3985 -0.0 -0.0 0.0 0.0 0.0 
